<?xml version="1.0" encoding="UTF-8" standalone="no"?>
<svg xmlns:ffdec="https://www.free-decompiler.com/flash" xmlns:xlink="http://www.w3.org/1999/xlink" ffdec:objectType="frame" height="63.35px" width="48.15px" xmlns="http://www.w3.org/2000/svg">
  <g transform="matrix(1.0, 0.0, 0.0, 1.0, 24.05, 38.7)">
    <use ffdec:characterId="130" height="36.7" transform="matrix(1.0, 0.0, 0.0, 1.0, -24.05, -12.05)" width="48.15" xlink:href="#shape0"/>
    <use ffdec:characterId="137" height="54.4" transform="matrix(1.0, 0.0, 0.0, 1.0, -15.7, -38.0)" width="29.8" xlink:href="#shape1"/>
    <use ffdec:characterId="132" height="33.55" transform="matrix(1.0, 0.0, 0.0, 1.0, -11.1, -16.35)" width="21.15" xlink:href="#shape2"/>
    <filter id="filter0">
      <feColorMatrix in="SourceGraphic" result="filterResult0" type="matrix" values="0 0 0 0 1.0,0 0 0 0 1.0,0 0 0 0 1.0,0 0 0 1 0"/>
      <feConvolveMatrix divisor="9.0" in="filterResult0" kernelMatrix="1 1 1 1 1 1 1 1 1" order="3 3" result="filterResult1"/>
      <feConvolveMatrix divisor="9.0" in="filterResult1" kernelMatrix="1 1 1 1 1 1 1 1 1" order="3 3" result="filterResult2"/>
      <feConvolveMatrix divisor="9.0" in="filterResult2" kernelMatrix="1 1 1 1 1 1 1 1 1" order="3 3" result="filterResult3"/>
      <feComposite in="SourceGraphic" in2="filterResult3" operator="over" result="filterResult4"/>
    </filter>
    <use ffdec:characterId="134" filter="url(#filter0)" height="3.55" transform="matrix(1.0, 0.0, 0.0, 1.0, -5.9, 0.3)" width="11.4" xlink:href="#sprite0"/>
    <use ffdec:characterId="135" height="3.9" transform="matrix(1.0, 0.0, 0.0, 1.0, -4.2, 5.6)" width="8.5" xlink:href="#shape4"/>
  </g>
  <defs>
    <g id="shape0" transform="matrix(1.0, 0.0, 0.0, 1.0, 24.05, 12.05)">
      <path d="M18.2 -5.5 L22.0 -1.85 23.5 -0.15 24.1 0.85 17.35 7.65 17.5 7.3 7.0 17.95 7.1 17.9 1.8 23.2 0.85 23.85 Q0.4 24.25 0.25 24.65 -0.55 24.4 -2.2 22.75 L-5.55 19.25 -5.9 18.9 -6.4 18.4 -6.15 18.45 -18.5 6.2 -18.5 6.3 -18.55 6.25 -18.8 6.0 -19.75 5.05 -21.3 3.5 -23.3 1.9 Q-24.45 0.85 -23.8 0.05 L-23.7 -0.05 -23.75 -0.15 -23.4 -0.8 -12.1 -12.05 11.65 -12.05 18.2 -5.5" fill="#000000" fill-rule="evenodd" stroke="none"/>
    </g>
    <g id="shape1" transform="matrix(1.0, 0.0, 0.0, 1.0, 15.7, 38.0)">
      <path d="M6.1 -32.95 L6.1 -32.9 5.85 -31.4 Q5.85 -30.65 6.15 -30.05 L6.55 -29.1 7.5 -27.35 7.65 -27.0 7.7 -26.55 7.85 -25.65 7.9 -24.7 7.4 -25.15 Q6.2 -26.3 5.55 -26.5 L5.45 -26.6 5.25 -26.7 4.55 -27.4 Q4.05 -28.1 4.05 -29.25 4.05 -30.6 4.55 -31.45 L6.0 -33.3 6.1 -32.95 M0.05 -35.35 L-0.2 -36.45 Q-0.5 -37.15 -1.55 -37.25 -2.55 -37.05 -3.0 -36.2 L-3.5 -35.0 -3.5 -34.75 Q-2.45 -35.4 -1.25 -35.4 -0.35 -35.4 0.05 -35.0 L0.05 -35.35 M0.6 -33.7 Q-0.1 -34.65 -1.05 -34.65 L-1.2 -34.65 -1.3 -34.65 -2.55 -34.4 -3.6 -34.0 -4.3 -33.6 -4.25 -33.75 -4.15 -34.45 Q-4.15 -35.35 -3.55 -36.45 -2.7 -38.0 -1.2 -38.0 0.75 -38.0 0.75 -34.95 L0.65 -33.65 0.6 -33.7 M4.7 -29.35 Q4.7 -28.3 5.15 -27.65 L5.25 -27.5 5.8 -27.1 6.1 -26.9 7.2 -26.15 Q7.15 -27.05 6.05 -28.8 5.25 -30.0 5.3 -30.9 L5.25 -31.25 4.9 -30.5 4.7 -29.35 M10.35 10.65 L10.0 10.95 Q8.0 13.45 7.05 13.45 L6.7 13.2 8.9 11.3 10.1 10.1 10.35 9.75 12.15 6.85 12.8 5.25 13.2 3.6 13.25 2.95 12.6 3.2 Q10.2 3.2 10.2 0.0 10.2 -2.95 12.2 -6.35 L13.1 -9.2 13.1 -9.3 13.2 -10.9 Q13.2 -17.95 5.9 -24.0 5.55 -22.75 4.05 -22.75 2.45 -22.75 1.5 -24.05 1.05 -24.3 0.9 -25.2 L0.75 -26.0 0.75 -26.1 0.75 -26.2 0.9 -27.6 0.7 -29.0 0.15 -30.25 -0.2 -29.7 -0.35 -29.45 -0.15 -29.45 0.0 -29.45 -0.2 -29.25 -0.2 -29.2 -0.25 -29.35 Q-0.95 -28.7 -1.9 -28.7 -3.9 -28.7 -3.75 -30.8 -4.4 -29.55 -4.6 -27.25 -4.6 -26.55 -5.3 -25.5 L-6.55 -23.85 -7.8 -21.45 -7.75 -21.25 Q-7.75 -19.75 -8.35 -18.65 -8.95 -17.2 -10.1 -17.2 L-10.3 -17.2 -10.5 -17.2 Q-11.3 -17.2 -11.7 -17.85 L-11.9 -18.65 -11.75 -19.45 -12.65 -18.45 -13.85 -15.7 -14.55 -12.9 -14.9 -9.7 Q-14.9 -5.1 -12.85 -0.3 L-11.5 2.8 -10.9 3.95 Q-10.45 4.7 -10.45 5.9 -10.45 8.1 -11.95 8.1 L-12.55 7.95 Q-11.5 10.3 -9.95 11.65 L-9.8 11.75 -9.45 12.05 -8.65 12.8 -8.45 13.1 -8.65 13.3 -9.75 12.6 -10.85 11.6 -12.3 9.75 Q-13.65 7.1 -13.8 6.0 L-13.8 6.05 Q-12.95 7.3 -12.35 7.3 L-12.05 7.4 Q-11.15 7.4 -11.15 5.9 -11.15 5.1 -11.65 4.1 L-11.8 3.7 -12.95 1.65 -14.5 -2.3 Q-15.7 -6.25 -15.7 -9.7 L-15.35 -13.05 Q-15.05 -15.05 -14.6 -16.1 L-13.2 -19.05 -11.95 -20.5 -10.95 -21.1 -10.55 -21.3 -11.05 -19.3 -11.05 -19.1 -11.1 -18.65 -11.1 -18.5 -10.95 -18.15 -10.5 -18.0 Q-9.85 -18.0 -9.2 -18.85 L-8.9 -19.3 -8.8 -19.65 -8.7 -20.1 -8.5 -21.3 -8.45 -22.0 Q-7.75 -23.8 -6.25 -25.5 -5.6 -26.15 -5.35 -27.4 L-5.05 -29.55 -4.15 -31.55 Q-3.4 -32.85 -2.8 -33.05 L-3.1 -31.65 -2.95 -30.7 -2.95 -30.6 Q-2.95 -29.5 -1.95 -29.5 L-1.35 -29.6 -1.3 -29.6 Q-0.7 -29.6 -0.3 -30.65 L0.0 -31.55 0.6 -30.85 Q1.7 -29.3 1.7 -27.6 L1.6 -26.0 Q1.6 -25.5 1.9 -24.95 L2.2 -24.25 2.2 -24.2 Q2.9 -23.45 3.8 -23.45 L4.35 -23.55 4.85 -23.8 5.1 -24.15 5.0 -24.45 5.0 -24.75 4.8 -25.7 4.9 -25.7 5.35 -25.3 6.05 -24.85 6.5 -24.5 6.6 -24.4 Q7.35 -23.45 7.9 -23.25 L8.75 -22.45 11.55 -19.05 Q14.0 -15.3 14.0 -10.9 L14.0 -10.15 14.0 -9.85 Q14.0 -7.9 12.5 -5.0 11.0 -2.1 11.0 0.05 L11.25 1.3 11.6 1.95 Q11.65 2.5 12.4 2.5 13.05 2.5 13.75 1.5 L14.0 1.15 14.1 2.15 14.05 2.95 Q14.05 5.4 12.15 8.45 L11.6 9.35 11.4 9.45 11.0 9.85 10.75 10.3 10.35 10.65 M-11.5 -30.65 L-10.8 -31.6 -10.7 -32.25 -10.8 -33.1 -11.05 -33.55 -11.1 -33.55 -11.1 -32.5 -11.1 -32.45 -11.1 -32.35 -11.5 -30.75 -11.55 -30.7 -11.55 -30.65 -11.5 -30.65 M-11.5 -34.0 L-11.55 -35.1 Q-10.25 -33.5 -10.25 -32.0 -10.25 -31.25 -10.6 -30.85 -11.05 -30.4 -12.35 -29.8 L-12.65 -29.8 -12.65 -29.85 Q-11.5 -31.7 -11.5 -34.0" fill="#fd3a0b" fill-rule="evenodd" stroke="none"/>
      <path d="M-9.95 11.65 Q-11.5 10.3 -12.55 7.95 L-11.95 8.1 Q-10.45 8.1 -10.45 5.9 -10.45 4.7 -10.9 3.95 L-11.5 2.8 -12.85 -0.3 Q-14.9 -5.1 -14.9 -9.7 L-14.55 -12.9 -13.85 -15.7 -12.65 -18.45 -11.75 -19.45 -11.9 -18.65 -11.7 -17.85 Q-11.3 -17.2 -10.5 -17.2 L-10.3 -17.2 -10.1 -17.2 Q-8.95 -17.2 -8.35 -18.65 -7.75 -19.75 -7.75 -21.25 L-7.8 -21.45 -6.55 -23.85 -5.3 -25.5 Q-4.6 -26.55 -4.6 -27.25 -4.4 -29.55 -3.75 -30.8 -3.9 -28.7 -1.9 -28.7 -0.95 -28.7 -0.25 -29.35 L-0.2 -29.2 -0.2 -29.25 0.0 -29.45 -0.15 -29.45 -0.35 -29.45 -0.2 -29.7 0.15 -30.25 0.7 -29.0 0.9 -27.6 0.75 -26.2 0.75 -26.1 0.75 -26.0 0.9 -25.2 Q1.05 -24.3 1.5 -24.05 2.45 -22.75 4.05 -22.75 5.55 -22.75 5.9 -24.0 13.2 -17.95 13.2 -10.9 L13.1 -9.3 13.1 -9.2 12.2 -6.35 Q10.2 -2.95 10.2 0.0 10.2 3.2 12.6 3.2 L13.25 2.95 13.2 3.6 12.8 5.25 12.15 6.85 10.35 9.75 10.1 10.1 8.9 11.3 6.7 13.2 7.05 13.45 Q8.0 13.45 10.0 10.95 L10.35 10.65 9.7 11.85 9.5 12.05 Q7.85 13.65 5.05 14.9 1.25 16.6 -2.1 16.4 L-5.5 14.8 -8.65 12.8 -9.45 12.05 Q-9.65 11.8 -9.95 11.65 M4.7 -29.35 L4.9 -30.5 5.25 -31.25 5.3 -30.9 Q5.25 -30.0 6.05 -28.8 7.15 -27.05 7.2 -26.15 L6.1 -26.9 5.8 -27.1 5.25 -27.5 5.15 -27.65 Q4.7 -28.3 4.7 -29.35 M-11.55 -30.7 L-11.5 -30.75 -11.1 -32.35 -11.1 -32.45 -11.1 -32.5 -11.1 -33.55 -11.05 -33.55 -10.8 -33.1 -10.7 -32.25 -10.8 -31.6 -11.5 -30.65 -11.55 -30.7" fill="url(#gradient0)" fill-rule="evenodd" stroke="none"/>
      <path d="M0.05 -35.35 L0.05 -35.0 Q-0.35 -35.4 -1.25 -35.4 -2.45 -35.4 -3.5 -34.75 L-3.5 -35.0 -3.0 -36.2 Q-2.55 -37.05 -1.55 -37.25 -0.5 -37.15 -0.2 -36.45 L0.05 -35.35" fill="url(#gradient1)" fill-rule="evenodd" stroke="none"/>
    </g>
    <radialGradient cx="0" cy="0" gradientTransform="matrix(4.0E-4, -0.0397, 0.0309, 3.0E-4, -0.65, 21.15)" gradientUnits="userSpaceOnUse" id="gradient0" r="819.2" spreadMethod="pad">
      <stop offset="0.23921568627450981" stop-color="#cc3333" stop-opacity="0.0"/>
      <stop offset="0.5490196078431373" stop-color="#cc3333"/>
      <stop offset="1.0" stop-color="#fd3a0b"/>
    </radialGradient>
    <radialGradient cx="0" cy="0" gradientTransform="matrix(4.0E-4, -0.0397, 0.0309, 3.0E-4, -0.65, 22.05)" gradientUnits="userSpaceOnUse" id="gradient1" r="819.2" spreadMethod="pad">
      <stop offset="0.23921568627450981" stop-color="#cc3333" stop-opacity="0.0"/>
      <stop offset="0.5490196078431373" stop-color="#cc3333"/>
      <stop offset="1.0" stop-color="#fd3a0b"/>
    </radialGradient>
    <g id="shape2" transform="matrix(1.0, 0.0, 0.0, 1.0, 11.1, 16.35)">
      <path d="M0.15 -16.15 L1.0 -16.35 0.6 -15.3 0.55 -15.15 0.55 -15.1 0.45 -14.8 0.3 -14.55 0.65 -14.65 1.7 -14.9 1.7 -14.95 1.75 -14.95 2.05 -14.95 3.5 -15.15 4.6 -15.35 8.0 -15.75 9.45 -15.85 9.55 -15.8 9.2 -15.15 9.0 -14.85 8.65 -14.3 8.05 -13.55 8.2 -13.5 9.4 -12.95 10.05 -12.45 Q9.75 -12.1 9.65 -11.35 L9.5 -11.35 9.55 -11.2 9.6 -11.1 9.6 -11.05 9.6 -10.75 9.55 -10.75 9.5 -10.25 9.45 -10.05 9.55 -10.05 9.4 -9.1 9.4 -8.8 9.3 -7.95 8.75 -3.4 8.65 -3.1 8.25 -0.45 8.7 2.65 8.0 1.5 7.75 2.85 7.65 3.6 7.6 4.0 7.25 5.75 7.2 6.15 Q7.75 7.5 8.35 10.65 L8.5 10.95 8.3 11.2 8.1 11.0 8.1 11.2 8.3 11.4 8.05 11.55 Q7.75 11.55 7.45 11.25 L7.0 10.8 6.4 10.35 6.4 10.5 6.25 11.15 6.25 11.35 3.55 14.1 1.1 17.0 0.95 17.0 0.75 17.2 0.7 17.15 -0.1 16.5 -1.0 15.65 -2.4 14.2 -5.25 11.4 -5.55 11.6 -6.1 11.85 -6.15 11.9 -6.55 12.05 Q-7.6 12.65 -7.75 12.65 L-7.4 11.1 -7.0 9.65 -6.95 9.45 -7.9 9.9 -9.25 10.4 -9.55 10.15 -9.1 9.15 -8.5 8.1 -8.05 7.3 -8.15 6.7 -8.2 6.55 -8.2 6.4 -8.65 3.6 -8.65 3.55 -9.15 1.15 -10.55 1.95 -9.5 -0.95 -9.6 -1.4 -10.05 -4.7 -10.45 -7.6 -10.95 -11.45 -11.05 -11.6 -11.1 -11.75 Q-11.1 -12.1 -5.35 -14.3 L-2.5 -15.45 -2.4 -15.5 -2.2 -15.65 0.15 -16.15 M1.3 -13.3 L0.2 -13.05 -0.9 -12.85 -1.0 -12.85 -1.05 -12.8 -1.55 -12.7 -1.55 -12.75 -1.2 -13.65 -1.0 -14.05 -2.5 -13.5 -5.35 -12.7 -9.5 -10.95 -9.5 -10.9 -9.45 -10.75 -9.2 -9.3 -8.8 -6.55 -8.55 -4.6 -8.55 -3.85 -8.45 -2.95 -8.25 -1.45 -9.25 0.35 -8.1 -0.1 -8.05 0.55 -7.45 3.7 -7.35 4.6 -7.15 5.9 -7.05 6.1 -7.0 6.55 -6.95 6.55 -6.8 7.1 -7.0 7.35 -7.55 8.55 -7.5 8.6 -7.65 8.95 Q-7.15 8.6 -6.95 8.55 L-6.05 8.0 -5.65 7.85 -5.7 7.9 -5.9 8.9 -5.95 8.95 -5.95 9.05 -6.55 11.1 -6.45 11.1 -6.2 11.0 -5.7 10.8 -5.35 10.65 -5.3 10.65 -5.2 10.7 -4.95 10.65 -4.75 10.65 -4.7 10.8 -4.1 11.25 -3.4 12.0 -2.9 12.55 -1.75 13.65 -1.6 13.85 -0.55 14.75 0.4 15.6 1.3 14.65 2.95 13.05 Q3.95 12.1 4.45 11.7 L5.2 11.0 5.7 10.65 5.8 9.3 5.8 9.15 5.9 9.1 7.0 9.9 6.95 9.6 6.7 8.4 6.25 7.2 6.1 6.45 5.9 6.1 5.9 5.95 5.95 5.2 6.0 4.9 6.1 5.1 6.15 5.05 6.25 3.85 Q6.2 3.65 6.3 3.5 L6.3 3.45 6.4 2.3 6.45 1.95 6.4 1.7 6.55 1.6 6.55 1.45 6.55 1.05 6.8 -0.4 6.9 -1.55 6.95 -1.7 7.6 -0.35 7.05 -2.8 7.85 -9.45 8.15 -11.3 8.1 -11.5 6.6 -12.8 6.4 -12.75 Q6.25 -12.75 6.25 -12.9 L6.25 -12.95 6.15 -13.05 6.1 -13.2 6.55 -13.95 6.75 -14.15 5.1 -13.95 3.35 -13.65 2.05 -13.45 1.3 -13.3" fill="#000000" fill-rule="evenodd" stroke="none"/>
      <path d="M1.3 -13.3 L2.05 -13.45 3.35 -13.65 5.1 -13.95 6.75 -14.15 6.55 -13.95 6.1 -13.2 6.15 -13.05 6.25 -12.95 6.25 -12.9 Q6.25 -12.75 6.4 -12.75 L6.6 -12.8 8.1 -11.5 8.15 -11.3 7.85 -9.45 7.05 -2.8 7.6 -0.35 6.95 -1.7 6.9 -1.55 6.8 -0.4 6.55 1.05 6.55 1.45 6.55 1.6 6.4 1.7 6.45 1.95 6.4 2.3 6.3 3.45 6.3 3.5 Q6.2 3.65 6.25 3.85 L6.15 5.05 6.1 5.1 6.0 4.9 5.95 5.2 5.9 5.95 5.9 6.1 6.1 6.45 6.25 7.2 6.7 8.4 6.95 9.6 7.0 9.9 5.9 9.1 5.8 9.15 5.8 9.3 5.7 10.65 5.2 11.0 4.45 11.7 Q3.95 12.1 2.95 13.05 L1.3 14.65 0.4 15.6 -0.55 14.75 -1.6 13.85 -1.75 13.65 -2.9 12.55 -3.4 12.0 -4.1 11.25 -4.7 10.8 -4.75 10.65 -4.95 10.65 -5.2 10.7 -5.3 10.65 -5.35 10.65 -5.7 10.8 -6.2 11.0 -6.45 11.1 -6.55 11.1 -5.95 9.05 -5.95 8.95 -5.9 8.9 -5.7 7.9 -5.65 7.85 -6.05 8.0 -6.95 8.55 Q-7.15 8.6 -7.65 8.95 L-7.5 8.6 -7.55 8.55 -7.0 7.35 -6.8 7.1 -6.95 6.55 -7.0 6.55 -7.05 6.1 -7.15 5.9 -7.35 4.6 -7.45 3.7 -8.05 0.55 -8.1 -0.1 -9.25 0.35 -8.25 -1.45 -8.45 -2.95 -8.55 -3.85 -8.55 -4.6 -8.8 -6.55 -9.2 -9.3 -9.45 -10.75 -9.5 -10.9 -9.5 -10.95 -5.35 -12.7 -2.5 -13.5 -1.0 -14.05 -1.2 -13.65 -1.55 -12.75 -1.55 -12.7 -1.05 -12.8 -1.0 -12.85 -0.9 -12.85 0.2 -13.05 1.3 -13.3 M5.5 0.3 L5.25 0.4 4.05 1.15 2.65 2.05 2.0 2.6 2.35 3.25 Q2.8 3.7 3.4 3.7 4.45 3.7 5.05 2.3 L5.5 0.5 5.5 0.3 M-2.5 2.75 L-2.5 2.65 -2.45 2.65 -2.4 2.5 -2.45 2.3 -2.95 2.05 -3.9 1.45 -5.9 0.6 -5.9 1.1 -5.8 2.15 -5.5 3.0 -5.45 3.05 -5.35 3.2 -5.3 3.25 -5.2 3.35 Q-4.7 3.85 -3.85 3.85 -3.05 3.85 -2.55 2.8 L-2.5 2.75" fill="url(#gradient2)" fill-rule="evenodd" stroke="none"/>
      <path d="M5.5 0.3 L5.5 0.5 5.05 2.3 Q4.45 3.7 3.4 3.7 2.8 3.7 2.35 3.25 L2.0 2.6 2.65 2.05 4.05 1.15 5.25 0.4 5.5 0.3 M-2.5 2.75 L-2.55 2.8 Q-3.05 3.85 -3.85 3.85 -4.7 3.85 -5.2 3.35 L-5.3 3.25 -5.35 3.2 -5.45 3.05 -5.5 3.0 -5.8 2.15 -5.9 1.1 -5.9 0.6 -3.9 1.45 -2.95 2.05 -2.45 2.3 -2.4 2.5 -2.45 2.65 -2.5 2.65 -2.5 2.75" fill="#ffffff" fill-rule="evenodd" stroke="none"/>
    </g>
    <linearGradient gradientTransform="matrix(0.0129, 0.0, 0.0, 0.0182, -0.7, 0.7)" gradientUnits="userSpaceOnUse" id="gradient2" spreadMethod="pad" x1="-819.2" x2="819.2">
      <stop offset="0.0" stop-color="#ac2828"/>
      <stop offset="0.5333333333333333" stop-color="#000000"/>
      <stop offset="1.0" stop-color="#ac2828"/>
    </linearGradient>
    <g id="sprite0" transform="matrix(1.0, 0.0, 0.0, 1.0, 5.7, 1.75)">
      <use ffdec:characterId="133" height="3.55" transform="matrix(1.0, 0.0, 0.0, 1.0, -5.7, -1.75)" width="11.4" xlink:href="#shape3"/>
    </g>
    <g id="shape3" transform="matrix(1.0, 0.0, 0.0, 1.0, 5.7, 1.75)">
      <path d="M5.45 -1.65 L5.7 -1.75 5.7 -1.55 5.25 0.25 Q4.65 1.65 3.6 1.65 3.0 1.65 2.55 1.2 L2.2 0.55 2.85 0.0 4.25 -0.9 5.45 -1.65 M-5.7 -1.45 L-3.7 -0.6 -2.75 0.0 -2.25 0.25 -2.2 0.45 -2.25 0.6 -2.3 0.6 -2.3 0.7 -2.35 0.75 Q-2.85 1.8 -3.65 1.8 -4.5 1.8 -5.0 1.3 L-5.1 1.2 -5.15 1.15 -5.25 1.0 -5.3 0.95 -5.6 0.1 -5.7 -0.95 -5.7 -1.45" fill="#ffffff" fill-rule="evenodd" stroke="none"/>
    </g>
    <g id="shape4" transform="matrix(1.0, 0.0, 0.0, 1.0, 4.2, -5.6)">
      <path d="M4.3 6.1 L3.25 7.25 3.85 8.75 -3.35 9.5 -4.2 6.75 -3.85 6.5 -2.85 6.2 0.6 5.65 Q2.65 5.4 4.3 6.1" fill="#ffffff" fill-rule="evenodd" stroke="none"/>
    </g>
  </defs>
</svg>
