<?xml version="1.0" encoding="UTF-8" standalone="no"?>
<svg xmlns:ffdec="https://www.free-decompiler.com/flash" xmlns:xlink="http://www.w3.org/1999/xlink" ffdec:objectType="frame" height="63.35px" width="48.15px" xmlns="http://www.w3.org/2000/svg">
  <g transform="matrix(1.0, 0.0, 0.0, 1.0, 24.05, 38.7)">
    <use ffdec:characterId="130" height="36.7" transform="matrix(1.0, 0.0, 0.0, 1.0, -24.05, -12.05)" width="48.15" xlink:href="#shape0"/>
    <use ffdec:characterId="131" height="49.7" transform="matrix(1.0, 0.0, 0.0, 1.0, -16.4, -33.3)" width="30.95" xlink:href="#shape1"/>
    <use ffdec:characterId="132" height="33.55" transform="matrix(1.0, 0.0, 0.0, 1.0, -11.1, -16.35)" width="21.15" xlink:href="#shape2"/>
    <filter id="filter0">
      <feColorMatrix in="SourceGraphic" result="filterResult0" type="matrix" values="0 0 0 0 1.0,0 0 0 0 1.0,0 0 0 0 1.0,0 0 0 1 0"/>
      <feConvolveMatrix divisor="9.0" in="filterResult0" kernelMatrix="1 1 1 1 1 1 1 1 1" order="3 3" result="filterResult1"/>
      <feConvolveMatrix divisor="9.0" in="filterResult1" kernelMatrix="1 1 1 1 1 1 1 1 1" order="3 3" result="filterResult2"/>
      <feConvolveMatrix divisor="9.0" in="filterResult2" kernelMatrix="1 1 1 1 1 1 1 1 1" order="3 3" result="filterResult3"/>
      <feComposite in="SourceGraphic" in2="filterResult3" operator="over" result="filterResult4"/>
    </filter>
    <use ffdec:characterId="134" filter="url(#filter0)" height="3.55" transform="matrix(1.0, 0.0, 0.0, 1.0, -5.9, 0.3)" width="11.4" xlink:href="#sprite0"/>
    <use ffdec:characterId="135" height="3.9" transform="matrix(1.0, 0.0, 0.0, 1.0, -4.2, 5.6)" width="8.5" xlink:href="#shape4"/>
  </g>
  <defs>
    <g id="shape0" transform="matrix(1.0, 0.0, 0.0, 1.0, 24.05, 12.05)">
      <path d="M18.2 -5.5 L22.0 -1.85 23.5 -0.15 24.1 0.85 17.35 7.65 17.5 7.3 7.0 17.95 7.1 17.9 1.8 23.2 0.85 23.85 Q0.4 24.25 0.25 24.65 -0.55 24.4 -2.2 22.75 L-5.55 19.25 -5.9 18.9 -6.4 18.4 -6.15 18.45 -18.5 6.2 -18.5 6.3 -18.55 6.25 -18.8 6.0 -19.75 5.05 -21.3 3.5 -23.3 1.9 Q-24.45 0.85 -23.8 0.05 L-23.7 -0.05 -23.75 -0.15 -23.4 -0.8 -12.1 -12.05 11.65 -12.05 18.2 -5.5" fill="#000000" fill-rule="evenodd" stroke="none"/>
    </g>
    <g id="shape1" transform="matrix(1.0, 0.0, 0.0, 1.0, 16.4, 33.3)">
      <path d="M9.4 12.15 Q10.3 10.3 10.3 9.1 L10.25 8.3 10.4 7.25 10.4 4.9 Q10.5 3.5 10.9 2.45 L12.1 0.1 13.15 -2.4 Q13.7 -4.65 13.7 -7.15 L13.4 -9.5 13.05 -11.65 12.6 -11.1 Q12.25 -10.7 11.7 -10.7 10.55 -10.7 10.25 -12.0 L10.15 -14.1 10.0 -15.8 9.7 -17.5 Q8.7 -20.45 6.65 -22.35 L5.45 -23.55 5.3 -23.3 Q4.9 -22.55 4.0 -22.55 1.95 -22.55 0.7 -25.1 0.05 -26.35 -0.2 -27.75 -0.2 -29.15 0.2 -30.75 0.3 -31.3 0.95 -31.9 L-2.7 -29.6 Q-4.65 -27.95 -5.45 -25.4 -6.15 -21.95 -6.7 -20.25 -7.7 -17.25 -9.35 -17.25 L-10.1 -17.45 -10.45 -17.75 Q-11.3 -17.0 -11.95 -14.7 -12.5 -12.7 -12.5 -11.3 L-12.25 -9.2 Q-12.0 -8.1 -12.0 -6.5 -11.9 -5.7 -12.05 -5.0 -12.3 -3.65 -13.35 -3.65 L-14.0 -3.75 -14.35 -4.15 -14.7 -1.6 Q-14.7 5.6 -9.8 11.45 L-9.2 12.15 -9.2 12.3 -9.4 12.35 Q-9.95 12.35 -11.2 10.8 L-12.55 8.95 -13.65 7.15 -14.5 5.4 Q-15.6 2.05 -15.6 -1.65 -15.4 -6.35 -14.65 -6.6 L-14.4 -5.5 Q-14.05 -4.6 -13.5 -4.6 -12.9 -4.6 -12.8 -5.05 L-12.75 -5.75 -12.8 -6.5 -12.9 -6.95 -13.15 -9.0 -13.4 -11.3 -13.3 -13.4 -12.65 -15.8 -11.25 -18.4 -9.95 -20.1 -9.95 -19.7 Q-9.95 -18.9 -9.65 -18.55 -9.65 -18.2 -9.35 -18.2 -8.25 -18.2 -7.7 -19.75 L-7.1 -22.2 -6.05 -26.25 Q-5.4 -28.2 -3.05 -30.3 L0.7 -32.65 Q2.4 -33.5 3.05 -33.25 L2.4 -32.5 2.0 -31.9 1.15 -30.85 0.85 -29.85 0.65 -28.7 Q0.65 -27.65 1.3 -26.0 2.25 -23.5 4.0 -23.5 L4.35 -23.6 5.15 -24.25 5.4 -24.6 5.55 -24.3 Q8.9 -23.0 10.35 -18.15 L10.95 -14.9 10.85 -13.6 10.9 -12.95 11.0 -13.25 11.0 -13.2 11.0 -13.05 11.1 -12.55 Q11.3 -12.05 11.85 -12.05 L12.05 -12.05 12.2 -12.0 12.75 -12.25 12.8 -12.3 13.2 -12.7 13.3 -12.9 13.4 -13.0 Q14.1 -12.3 14.4 -9.4 L14.55 -5.5 Q14.55 -3.45 13.55 -1.35 12.1 1.65 11.6 3.5 11.05 5.55 11.3 8.0 11.35 9.1 10.5 10.7 L10.45 10.75 9.7 11.85 9.5 12.05 9.4 12.15 M11.65 -11.7 L11.7 -11.7 11.65 -11.75 11.65 -11.7 M-15.2 -11.65 Q-14.7 -12.25 -14.6 -13.15 L-14.95 -14.2 Q-15.35 -15.15 -15.4 -16.15 -15.85 -15.2 -15.9 -14.25 L-15.7 -13.55 -15.4 -12.05 -15.4 -11.7 -15.45 -11.4 -15.35 -11.7 -15.3 -11.7 -15.25 -11.65 -15.2 -11.65 M-15.85 -16.25 L-14.6 -17.95 -14.85 -17.05 -15.0 -16.0 -15.0 -15.9 -14.7 -14.85 -14.6 -14.4 Q-14.35 -14.0 -14.35 -13.05 -14.35 -12.6 -14.8 -11.7 -15.35 -10.6 -15.85 -10.6 L-16.05 -10.65 -16.1 -10.8 -16.2 -10.9 -15.95 -11.3 -15.8 -11.7 -16.05 -12.8 -16.35 -14.25 -16.35 -14.55 -16.35 -14.7 -16.4 -14.75 -16.05 -16.0 -15.85 -16.25" fill="#fd3a0b" fill-rule="evenodd" stroke="none"/>
      <path d="M-9.2 12.3 L-9.2 12.15 -9.8 11.45 Q-14.7 5.6 -14.7 -1.6 L-14.35 -4.15 -14.0 -3.75 -13.35 -3.65 Q-12.3 -3.65 -12.05 -5.0 -11.9 -5.7 -12.0 -6.5 -12.0 -8.1 -12.25 -9.2 L-12.5 -11.3 Q-12.5 -12.7 -11.95 -14.7 -11.3 -17.0 -10.45 -17.75 L-10.1 -17.45 -9.35 -17.25 Q-7.7 -17.25 -6.7 -20.25 -6.15 -21.95 -5.45 -25.4 -4.65 -27.95 -2.7 -29.6 L0.95 -31.9 Q0.3 -31.3 0.2 -30.75 -0.2 -29.15 -0.2 -27.75 0.05 -26.35 0.7 -25.1 1.95 -22.55 4.0 -22.55 4.9 -22.55 5.3 -23.3 L5.45 -23.55 6.65 -22.35 Q8.7 -20.45 9.7 -17.5 L10.0 -15.8 10.15 -14.1 10.25 -12.0 Q10.55 -10.7 11.7 -10.7 12.25 -10.7 12.6 -11.1 L13.05 -11.65 13.4 -9.5 13.7 -7.15 Q13.7 -4.65 13.15 -2.4 L12.1 0.1 10.9 2.45 Q10.5 3.5 10.4 4.9 L10.4 7.25 10.25 8.3 10.3 9.1 Q10.3 10.3 9.4 12.15 L9.45 12.15 Q7.8 13.7 5.05 14.9 1.25 16.6 -2.1 16.4 L-5.5 14.8 Q-7.65 13.7 -9.2 12.3 M-15.4 -11.7 L-15.4 -12.05 -15.7 -13.55 -15.9 -14.25 Q-15.85 -15.2 -15.4 -16.15 -15.35 -15.15 -14.95 -14.2 L-14.6 -13.15 Q-14.7 -12.25 -15.2 -11.65 L-15.3 -11.7 -15.35 -11.7 -15.4 -11.7" fill="url(#gradient0)" fill-rule="evenodd" stroke="none"/>
    </g>
    <radialGradient cx="0" cy="0" gradientTransform="matrix(4.0E-4, -0.0397, 0.0309, 3.0E-4, -0.65, 21.15)" gradientUnits="userSpaceOnUse" id="gradient0" r="819.2" spreadMethod="pad">
      <stop offset="0.23921568627450981" stop-color="#cc3333" stop-opacity="0.0"/>
      <stop offset="0.5490196078431373" stop-color="#cc3333"/>
      <stop offset="1.0" stop-color="#fd3a0b"/>
    </radialGradient>
    <g id="shape2" transform="matrix(1.0, 0.0, 0.0, 1.0, 11.1, 16.35)">
      <path d="M0.15 -16.15 L1.0 -16.35 0.6 -15.3 0.55 -15.15 0.55 -15.1 0.45 -14.8 0.3 -14.55 0.65 -14.65 1.7 -14.9 1.7 -14.95 1.75 -14.95 2.05 -14.95 3.5 -15.15 4.6 -15.35 8.0 -15.75 9.45 -15.85 9.55 -15.8 9.2 -15.15 9.0 -14.85 8.65 -14.3 8.05 -13.55 8.2 -13.5 9.4 -12.95 10.05 -12.45 Q9.75 -12.1 9.65 -11.35 L9.5 -11.35 9.55 -11.2 9.6 -11.1 9.6 -11.05 9.6 -10.75 9.55 -10.75 9.5 -10.25 9.45 -10.05 9.55 -10.05 9.4 -9.1 9.4 -8.8 9.3 -7.95 8.75 -3.4 8.65 -3.1 8.25 -0.45 8.7 2.65 8.0 1.5 7.75 2.85 7.65 3.6 7.6 4.0 7.25 5.75 7.2 6.15 Q7.75 7.5 8.35 10.65 L8.5 10.95 8.3 11.2 8.1 11.0 8.1 11.2 8.3 11.4 8.05 11.55 Q7.75 11.55 7.45 11.25 L7.0 10.8 6.4 10.35 6.4 10.5 6.25 11.15 6.25 11.35 3.55 14.1 1.1 17.0 0.95 17.0 0.75 17.2 0.7 17.15 -0.1 16.5 -1.0 15.65 -2.4 14.2 -5.25 11.4 -5.55 11.6 -6.1 11.85 -6.15 11.9 -6.55 12.05 Q-7.6 12.65 -7.75 12.65 L-7.4 11.1 -7.0 9.65 -6.95 9.45 -7.9 9.9 -9.25 10.4 -9.55 10.15 -9.1 9.15 -8.5 8.1 -8.05 7.3 -8.15 6.7 -8.2 6.55 -8.2 6.4 -8.65 3.6 -8.65 3.55 -9.15 1.15 -10.55 1.95 -9.5 -0.95 -9.6 -1.4 -10.05 -4.7 -10.45 -7.6 -10.95 -11.45 -11.05 -11.6 -11.1 -11.75 Q-11.1 -12.1 -5.35 -14.3 L-2.5 -15.45 -2.4 -15.5 -2.2 -15.65 0.15 -16.15 M1.3 -13.3 L0.2 -13.05 -0.9 -12.85 -1.0 -12.85 -1.05 -12.8 -1.55 -12.7 -1.55 -12.75 -1.2 -13.65 -1.0 -14.05 -2.5 -13.5 -5.35 -12.7 -9.5 -10.95 -9.5 -10.9 -9.45 -10.75 -9.2 -9.3 -8.8 -6.55 -8.55 -4.6 -8.55 -3.85 -8.45 -2.95 -8.25 -1.45 -9.25 0.35 -8.1 -0.1 -8.05 0.55 -7.45 3.7 -7.35 4.6 -7.15 5.9 -7.05 6.1 -7.0 6.55 -6.95 6.55 -6.8 7.1 -7.0 7.35 -7.55 8.55 -7.5 8.6 -7.65 8.95 Q-7.15 8.6 -6.95 8.55 L-6.05 8.0 -5.65 7.85 -5.7 7.9 -5.9 8.9 -5.95 8.95 -5.95 9.05 -6.55 11.1 -6.45 11.1 -6.2 11.0 -5.7 10.8 -5.35 10.65 -5.3 10.65 -5.2 10.7 -4.95 10.65 -4.75 10.65 -4.7 10.8 -4.1 11.25 -3.4 12.0 -2.9 12.55 -1.75 13.65 -1.6 13.85 -0.55 14.75 0.4 15.6 1.3 14.65 2.95 13.05 Q3.95 12.1 4.45 11.7 L5.2 11.0 5.7 10.65 5.8 9.3 5.8 9.15 5.9 9.1 7.0 9.9 6.95 9.6 6.7 8.4 6.25 7.2 6.1 6.45 5.9 6.1 5.9 5.95 5.95 5.2 6.0 4.9 6.1 5.1 6.15 5.05 6.25 3.85 Q6.2 3.65 6.3 3.5 L6.3 3.45 6.4 2.3 6.45 1.95 6.4 1.7 6.55 1.6 6.55 1.45 6.55 1.05 6.8 -0.4 6.9 -1.55 6.95 -1.7 7.6 -0.35 7.05 -2.8 7.85 -9.45 8.15 -11.3 8.1 -11.5 6.6 -12.8 6.4 -12.75 Q6.25 -12.75 6.25 -12.9 L6.25 -12.95 6.15 -13.05 6.1 -13.2 6.55 -13.95 6.75 -14.15 5.1 -13.95 3.35 -13.65 2.05 -13.45 1.3 -13.3" fill="#000000" fill-rule="evenodd" stroke="none"/>
      <path d="M1.3 -13.3 L2.05 -13.45 3.35 -13.65 5.1 -13.95 6.75 -14.15 6.55 -13.95 6.1 -13.2 6.15 -13.05 6.25 -12.95 6.25 -12.9 Q6.25 -12.75 6.4 -12.75 L6.6 -12.8 8.1 -11.5 8.15 -11.3 7.85 -9.45 7.05 -2.8 7.6 -0.35 6.95 -1.7 6.9 -1.55 6.8 -0.4 6.55 1.05 6.55 1.45 6.55 1.6 6.4 1.7 6.45 1.95 6.4 2.3 6.3 3.45 6.3 3.5 Q6.2 3.65 6.25 3.85 L6.15 5.05 6.1 5.1 6.0 4.9 5.95 5.2 5.9 5.95 5.9 6.1 6.1 6.45 6.25 7.2 6.7 8.4 6.95 9.6 7.0 9.9 5.9 9.1 5.8 9.15 5.8 9.3 5.7 10.65 5.2 11.0 4.45 11.7 Q3.95 12.1 2.95 13.05 L1.3 14.65 0.4 15.6 -0.55 14.75 -1.6 13.85 -1.75 13.65 -2.9 12.55 -3.4 12.0 -4.1 11.25 -4.7 10.8 -4.75 10.65 -4.95 10.65 -5.2 10.7 -5.3 10.65 -5.35 10.65 -5.7 10.8 -6.2 11.0 -6.45 11.1 -6.55 11.1 -5.95 9.05 -5.95 8.95 -5.9 8.9 -5.7 7.9 -5.65 7.85 -6.05 8.0 -6.95 8.55 Q-7.15 8.6 -7.65 8.95 L-7.5 8.6 -7.55 8.55 -7.0 7.35 -6.8 7.1 -6.95 6.55 -7.0 6.55 -7.05 6.1 -7.15 5.9 -7.35 4.6 -7.45 3.7 -8.05 0.55 -8.1 -0.1 -9.25 0.35 -8.25 -1.45 -8.45 -2.95 -8.55 -3.85 -8.55 -4.6 -8.8 -6.55 -9.2 -9.3 -9.45 -10.75 -9.5 -10.9 -9.5 -10.95 -5.35 -12.7 -2.5 -13.5 -1.0 -14.05 -1.2 -13.65 -1.55 -12.75 -1.55 -12.7 -1.05 -12.8 -1.0 -12.85 -0.9 -12.85 0.2 -13.05 1.3 -13.3 M5.5 0.3 L5.25 0.4 4.05 1.15 2.65 2.05 2.0 2.6 2.35 3.25 Q2.8 3.7 3.4 3.7 4.45 3.7 5.05 2.3 L5.5 0.5 5.5 0.3 M-2.5 2.75 L-2.5 2.65 -2.45 2.65 -2.4 2.5 -2.45 2.3 -2.95 2.05 -3.9 1.45 -5.9 0.6 -5.9 1.1 -5.8 2.15 -5.5 3.0 -5.45 3.05 -5.35 3.2 -5.3 3.25 -5.2 3.35 Q-4.7 3.85 -3.85 3.85 -3.05 3.85 -2.55 2.8 L-2.5 2.75" fill="url(#gradient1)" fill-rule="evenodd" stroke="none"/>
      <path d="M5.5 0.3 L5.5 0.5 5.05 2.3 Q4.45 3.7 3.4 3.7 2.8 3.7 2.35 3.25 L2.0 2.6 2.65 2.05 4.05 1.15 5.25 0.4 5.5 0.3 M-2.5 2.75 L-2.55 2.8 Q-3.05 3.85 -3.85 3.85 -4.7 3.85 -5.2 3.35 L-5.3 3.25 -5.35 3.2 -5.45 3.05 -5.5 3.0 -5.8 2.15 -5.9 1.1 -5.9 0.6 -3.9 1.45 -2.95 2.05 -2.45 2.3 -2.4 2.5 -2.45 2.65 -2.5 2.65 -2.5 2.75" fill="#ffffff" fill-rule="evenodd" stroke="none"/>
    </g>
    <linearGradient gradientTransform="matrix(0.0129, 0.0, 0.0, 0.0182, -0.7, 0.7)" gradientUnits="userSpaceOnUse" id="gradient1" spreadMethod="pad" x1="-819.2" x2="819.2">
      <stop offset="0.0" stop-color="#ac2828"/>
      <stop offset="0.5333333333333333" stop-color="#000000"/>
      <stop offset="1.0" stop-color="#ac2828"/>
    </linearGradient>
    <g id="sprite0" transform="matrix(1.0, 0.0, 0.0, 1.0, 5.7, 1.75)">
      <use ffdec:characterId="133" height="3.55" transform="matrix(1.0, 0.0, 0.0, 1.0, -5.7, -1.75)" width="11.4" xlink:href="#shape3"/>
    </g>
    <g id="shape3" transform="matrix(1.0, 0.0, 0.0, 1.0, 5.7, 1.75)">
      <path d="M5.45 -1.65 L5.7 -1.75 5.7 -1.55 5.25 0.25 Q4.65 1.65 3.6 1.65 3.0 1.65 2.55 1.2 L2.2 0.55 2.85 0.0 4.25 -0.9 5.45 -1.65 M-5.7 -1.45 L-3.7 -0.6 -2.75 0.0 -2.25 0.25 -2.2 0.45 -2.25 0.6 -2.3 0.6 -2.3 0.7 -2.35 0.75 Q-2.85 1.8 -3.65 1.8 -4.5 1.8 -5.0 1.3 L-5.1 1.2 -5.15 1.15 -5.25 1.0 -5.3 0.95 -5.6 0.1 -5.7 -0.95 -5.7 -1.45" fill="#ffffff" fill-rule="evenodd" stroke="none"/>
    </g>
    <g id="shape4" transform="matrix(1.0, 0.0, 0.0, 1.0, 4.2, -5.6)">
      <path d="M4.3 6.1 L3.25 7.25 3.85 8.75 -3.35 9.5 -4.2 6.75 -3.85 6.5 -2.85 6.2 0.6 5.65 Q2.65 5.4 4.3 6.1" fill="#ffffff" fill-rule="evenodd" stroke="none"/>
    </g>
  </defs>
</svg>
