<?xml version="1.0" encoding="UTF-8"?>
<svg id="Layer_2" data-name="Layer 2" xmlns="http://www.w3.org/2000/svg" width="28.85" height="29.85" viewBox="0 0 28.85 29.85">
  <g id="Layer_1-2" data-name="Layer 1">
    <g>
      <path d="M14.75,21.65l-.3.75.5-.1.2.2h.05c-.03.2-.4.37-1.1.5l-.6.8.4.1c0,.17-.3.33-.9.5-.37.4-.63.6-.8.6l-.2-.35.05-.05-2.8.55-4.45.8-.2-.05.15-.35.05-.05-.05-.1,1.05-2,.45-1-3-.55-.9-.35,2.55-2.4,1.65-1.35.1-.15-1.35-1.4-2.15-2.7-2-2.65L.1,9.35l-.1-.1.25-.05.6-.25.2.05,2.7.15,1.9.05.95.1.45.1-1.05-1.85-.35-.55-.3-1.2.65.2.15.05.8.35c0,.07.73.42,2.2,1.05l-1.15-3.1-.6-1.8-.4-1.2.1-.6.4.2,1.05.8,2.5,1.75,4.1,2.7.3-4.7.1-.3.1-1.2.35.4.95,1.35,1.35,1.6.2-.2.2-.5.25-.8c.1.03.22-.03.35-.2l-.05-.15c0-.17.13-.22.4-.15l.3.45.7,1.2.25.25.05-.05.75,1.25.5,1.25.15-.75.4-.3.15.25v.2c-.03.33-.37,1.3-1,2.9l-1.05,2.25-1.55,2.9-.5-.3,1.55-2.9.35-.6-.25.1c-.4-.03-.95-.62-1.65-1.75l-1-1.3-.3,1.7c-.27,1.2-.53,1.78-.8,1.75l-.2-.1-1.5-.8-1.6-1.05-1.7-1-.3-.1.25.85c.63,1.63.93,2.65.9,3.05l-.05.15h-.35l-1.95-.7-.8-.3.3.5.65,1.75c0,.2-.08.3-.25.3l-.05-.1h-2.1l-1.9-.1h-.35l.15.15-.05.1c-.07.23.27.83,1,1.8l1.1,1.65,1.4,2.15-2.95,2.4.45.4,1.65.6.25.15-.1,1.45.1.5.25.45,1.6-.7,1.2-.25.65-.25.95-.25.35-.05.05-.15.55-1.1.45.4M14.5,20.9l.45-1.05c1.37-2.07,2.32-3.68,2.85-4.85l.85-1.7.4.3-.9,1.6-.05.25-.2.4-.75,1.4-.1.2-1.6,2.75-.5,1-.45-.3M9.55,18.3l.05.05h-.1l.05-.05M10.4,18.15l-.2-.4.25-.05.15.15.05.05-.25.25M9.85,21.5l-.4-.25.2-.15.15.3.05.1M9.15,23.05l-.05-.1.05.05v.05M9.3,23.3h-.15l-.1-.05v-.05h.2l.05.1" fill="#f90" fill-rule="evenodd" stroke-width="0"/>
      <path d="M14.75,21.65l-.45-.4-.55,1.1-.05.15-.35.05-.95.25-.65.25-1.2.25-1.6.7-.25-.45-.1-.5.1-1.45-.25-.15-1.65-.6-.45-.4,2.95-2.4-1.4-2.15-1.1-1.65c-.73-.97-1.07-1.57-1-1.8l.05-.1-.15-.15h.35l1.9.1h2.1l.05.1c.17,0,.25-.1.25-.3l-.65-1.75-.3-.5.8.3,1.95.7h.35l.05-.15c.03-.4-.27-1.42-.9-3.05l-.25-.85.3.1,1.7,1,1.6,1.05,1.5.8.2.1c.27.03.53-.55.8-1.75l.3-1.7,1,1.3c.7,1.13,1.25,1.72,1.65,1.75l.25-.1-.35.6-1.55,2.9.5.3.3.5-2.25,4.3c-1,2.73-1.72,4.07-2.15,4l-.45-.3M18.65,13.3l-2.3-1.55-2.35-1.75c.27,1.13.38,1.92.35,2.35l-.1.35-1.85-.2.7,1.75c0,.23-.23.35-.7.35l-2.8-.15,1.55,2.45.75,1.1c.33.43.45.8.35,1.1l2.25,1.8.45.3.25.15,1.85-3.9.1-.2.75-1.4.2-.4,1-1.8-.05-.05-.4-.3M10.4,18.15l.25-.25-.05-.05-.15-.15-.25.05.2.4M9.55,18.3l-.05.05h.1l-.05-.05M9.85,21.5l-.05-.1-.15-.3-.2.15.4.25M9.3,23.3l-.05-.1h-.2v.05l.1.05h.15M9.15,23.05v-.05l-.05-.05.05.1" fill="#fbffa8" fill-rule="evenodd" stroke-width="0"/>
      <path d="M14.5,20.9l-2.25-1.8c.1-.3-.02-.67-.35-1.1l-.75-1.1-1.55-2.45,2.8.15c.47,0,.7-.12.7-.35l-.7-1.75,1.85.2.1-.35c.03-.43-.08-1.22-.35-2.35l2.35,1.75,2.3,1.55-.85,1.7c-.53,1.17-1.48,2.78-2.85,4.85l-.45,1.05" fill="#f9ffd9" fill-rule="evenodd" stroke-width="0"/>
      <path d="M18.4,7.35l.05-.05.05-.25v-.2l.05-.05-.1-.15h.1l1.3-.85,1.9-.7,4.1-1.3-.15.15c-1.13,1.53-2.03,3.08-2.7,4.65l-1.15,2.75,5.15.1.1.05.35.05.2-.15v.05l-.2.25.05.05-6.55,7.45h-.05l-.2.4v.05l-.1.1-.15.1-.5.65-.35.35-.35.5-.15.25-.55.7.4-.7.15-.25.35-.6.4-.3.55-.65.1-.15h.15l-.1-.1.3-.4.05-.05.45-.6,1.55-2,1.95-2.15,2.55-2.65v-.05l-.05-.05-5.45-.05v.1l-.35.5-.8,1.65-1.15,2.2-1.05,2.15-1.5,3.35-.4-.15.35-.65h.05l.05-.05.05-.15,3.95-8.85-2.7-4.3M26.4,3.7l.05-.05.05.1.75,4.9-.85-4.95" fill="#c4c4c4" fill-rule="evenodd" stroke-width="0"/>
      <path d="M25.85,3.8l-4.1,1.3-1.9.7-1.3.85h-.1l.1.15-.05.05v.2l-.05.25-.05.05-.65,2.7-.4,1.65-.35,1.3-.35,1.3-.1.15-.55,2-.3,1.45-.15.2-.15.8-.15.7-.25.3.05.05-.05.1-.1.35,1.6.8.1-.05v.15l.05.05.4.15.45.2,1.05.6.55-.7.15-.25.35-.5.35-.35.5-.65.15-.1.1-.1v-.05l.2-.4h.05l6.55-7.45-.05-.05.2-.25v-.1l-.4-2.7-.75-4.9-.05-.1-.05.05-.4.1h-.15M10.5,17.6l.45-.15.9.1,1.15.6.6.35.25.3c.07.13.2.2.4.2l.1-.15.2-1.05.05-.05v-.2c.07-.07.08-.12.05-.15l.05-.05v-.2l3.15-11.65,9.15-3.45,1.85,9.85-5.35,5.8.1.05-.5.4-1.75,2.1-1.5,1.95.5.1c.57.13,1.08.33,1.55.6.8.47,1.17,1.15,1.1,2.05l-.5,1.35-.75,1.05-2.3-.05-.7-.55-.5-.35-.4-.2v.05c-.2.47-.52.88-.95,1.25l-.55.3.3.75-.1.6c-.23.47-.68.7-1.35.7-.83.03-1.87-.28-3.1-.95-1.17-.67-1.88-1.35-2.15-2.05-.2-.5-.2-.88,0-1.15.27-.47.65-.72,1.15-.75l.1-.9.5-1.1.2-.3-.3-.05-.6-.05-.9-.3c-.9-.53-1.32-1.25-1.25-2.15,0-.5.13-.97.4-1.4l.8-.95.45-.15M17.85,22.45l-1.8-1-.65-.35-1.15-.75h-.1l-.05-.05v-.45c-.23-.13-.45-.23-.65-.3l-.8-.6-.6-.4c-.73-.4-1.25-.32-1.55.25l-.15.25-.1.25-.25.2v.25l-.1.1-.1.2c-.13.2-.15.43-.05.7l.7.9.5.05.1.05.05.1.4.1h.1l.4-.1h.15l.6.35.15.2-.15.7-.15.1-.05.45-.3.3.1.7-.15.65.15.2-.15.1-.35.05h-.15l-.2.35-.3-.05-.25.1-.2.3.05.75.05.05.1-.05.15.2v.05h.05l1.35,1.05.2.1,2.05.75h.25l.55-.2v-.6l-.05-.1-.05-.05v-.6c-.03-.23-.17-.42-.4-.55l.7-.05.45-.4.1-.15.35-.25.05-.3.1-.15.25-.25.05-.2-.05-.3.2-.35.55.3h.1l.6.5h.1l.25.2.1.05.05.1.15.15.4.4v.1h.1l.15.15h.05l.65.05.05-.05.1.05.45-.1.35-.35.1-.05v-.15l.1-.15v-.1l.2-.6.1-.15c.33-.63.13-1.13-.6-1.5l-.8-.25-.9-.3-.3-.25-.1.05-.05-.1-.15.05-.35.05-.1.05-.1-.05-.1-.15-.4-.15-.15-.1" fill-rule="evenodd" stroke-width="0"/>
      <path d="M18.4,7.35l2.7,4.3-3.95,8.85-.05.15-.05.05h-.05l-.35.65-.05-.05v-.15l-.1.05-1.6-.8.1-.35.05-.1-.05-.05.25-.3.15-.7.15-.8.15-.2.3-1.45.55-2,.1-.15.35-1.3.35-1.3.4-1.65.65-2.7" fill="#777" fill-rule="evenodd" stroke-width="0"/>
      <path d="M21.65,25.85v.1l-.1.15v.15l-.1.05-.35.35-.45.1-.1-.05.2.05.55-.5.1-.4-.15-.35c0-.13-.05-.23-.15-.3l-.55-.35c-.2-.17-.45-.27-.75-.3-.17-.1-.3-.15-.4-.15l-.1-.05-.2.05-.25-.15c-.23-.17-.52-.32-.85-.45l-4.85-2.85-.45-.25h-.05l.05.3-.2.5-.3.3-.05.05h-.15l-.4.1h-.1l-.4-.1-.05-.1.05-.1.35.05.35-.05.05-.05.25-.35.1-.3-.05-.25.05-.2-.15-.15-.45-.4-.15-.1-.55-.15-.15.05-.15-.05-.1.05h-.05l-.15.05h-.25l-.05-.05v-.25l.25-.2h.6l.3.05.4.2.1.05h.15l.05.15c.3.13.52.28.65.45l.3.3.25.2.9.55,1.25.65,1.25.6,1.05.8c.3.07.58.18.85.35.43.2.7.35.8.45l.15.05.45.15.1-.05.25.1.35.1c.1,0,.17.03.2.1.67.3,1,.73,1,1.3M17.05,25.1l.05.3-.05.2-.25.25-.1.15-.05.3-.35.25-.1.15-.45.4-.7.05c.23.13.37.32.4.55v.6l.05.05.05.1v.6l-.55.2h-.05l-.1-.15.4-.1.15-.15.05-.15-.15-.35-.05-.15.05-.1v-.5l-.25-.2-.35-.4-.3-.1v.25l-.2.65c.23.07.37.23.4.5l-.1.45-.1.2-.15.05-.1-.2.2-.2v-.25c-.07-.23-.2-.38-.4-.45l-.05-.15.2-.25.1-.5v-.3l-.25-.1h-.05l-.1-.2h.15l.15.05.6.25.55.35.2-.1.4-.2.15-.15-.05-.05-1.2-.5h-.1l-.05-.1-.4-.25.7.35.5.1,1.1-.1.05-.25-.5-.1-.2-.1-.85-.4-.1-.15-.05-.1.35.15.35.05.25.2.95.25.1-.15.05-.1v-.25h.15M22.65,11.05l3.35-6.85,1.3,6.8-4.65.05M19.55,25.45c-.1.17,0,.33.3.5l-.1.05c-.3-.2-.38-.42-.25-.65.2-.27.43-.35.7-.25l.05.05-.15.05-.05.05c-.23-.1-.4-.03-.5.2M11.15,20.25c-.23-.1-.4-.02-.5.25-.13.23-.08.4.15.5l-.2-.05-.25-.35.2-.3c.07-.13.2-.2.4-.2l.2.15" fill="#fff" fill-rule="evenodd" stroke-width="0"/>
      <path d="M10.25,19.3l.1-.25.15-.25c.3-.57.82-.65,1.55-.25l.6.4.8.6c.2.07.42.17.65.3v.45l.05.05h.1l1.15.75.65.35,1.8,1c-2-.93-4.02-1.88-6.05-2.85h-.15l.05-.05h-.15l-.4-.2-.3-.05h-.6M18.85,25.75l-.25-.2h-.1v-.15l.1-.7c.07-.13.2-.22.4-.25l.1-.05.2-.05.1.05c.1,0,.23.05.4.15v.05l-.1.05h-.15c-.27-.03-.48.1-.65.4l-.05.55v.15M11.15,27.35h-.05v-.05l-.05-.25-.05-.1.05-.15c.17-.3.48-.37.95-.2v-.35l.35-.3.35.05-.2-.2-.25.05-.5-.05-.15.25-.15.1h-.1l-.45.2.05.5.1.2-.1.05-.1.05-.05-.05-.05-.75.2-.3.25-.1.3.05.2-.35h.15l.35-.05.15-.1-.15-.2.15-.65-.1-.7.3-.3.05-.45.15-.1.05-.05.35.1.15-.05-.2.1-.05.15c-.13.1-.13.23,0,.4l.3.3,1.1.7.4.2.05.1-1.4-.65-.25-.05-.35-.45-.2.05c-.13.37-.03.72.3,1.05l.1.1.7.35.4.25.4.25.05.1-.2-.1-.95-.4-.45-.2v-.1l-.5-.3v.05l.25.6.1.2,1.05.6h-.15l.1.2-.3-.2-.35.35-.15.75h-.15l-.3-.05-.2.2.05.55h-.15c-.23-.13-.27-.35-.1-.65.1-.27.35-.33.75-.2l.05-.6.15-.3.3-.1-.4-.1-.2-.2-.4.05c-.2.07-.28.12-.25.15l-.05.25.1.35-.25-.05h-.05c-.33-.2-.55-.2-.65,0l-.1.3v.15l-.1.1M10.95,21.7l-.5-.05-.7-.9c-.1-.27-.08-.5.05-.7l.1-.2.1-.1.05.05h.25l.15-.05-.4.3v.15h-.1l.05.1v.4l.05.2.6.7.05-.1.1.15c.07-.03.12-.02.15.05M20.55,25.65v-.2l-.1-.15-.05-.05c.2.1.35.25.45.45l-.05.3-.4.25-.4-.05.15-.05c.23,0,.37-.08.4-.25l.05-.1-.05-.15M11.5,20.6l-.15-.2-.05-.1.1-.05.2.25-.1.5-.35.15h-.25l.2-.1h.05l.3-.25.05-.2" fill="#fd8002" fill-rule="evenodd" stroke-width="0"/>
      <path d="M18.6,22.9l.1-.05.35-.05.15-.05.05.1.1-.05.3.25.9.3.8.25c.73.37.93.87.6,1.5l-.1.15-.2.6c0-.57-.33-1-1-1.3-.03-.07-.1-.1-.2-.1l-.35-.1-.25-.1-.1.05-.45-.15-.15-.05c-.1-.1-.37-.25-.8-.45-.27-.17-.55-.28-.85-.35l-1.05-.8-1.25-.6-1.25-.65-.9-.55,5.55,2.2M11.55,19.55h.15l-.05.05-.1-.05" fill="#fcef83" fill-rule="evenodd" stroke-width="0"/>
      <path d="M27.65,11.4l-.2.15-.35-.05-.1-.05-5.15-.1,1.15-2.75c.67-1.57,1.57-3.12,2.7-4.65l.15-.15h.15l.4-.1.85,4.95.4,2.7v.05M22.65,11.05l4.65-.05-1.3-6.8-3.35,6.85" fill="#d9d9d9" fill-rule="evenodd" stroke-width="0"/>
      <path d="M27.35,11.6l.05.05v.05l-.05-.1" fill="#696969" fill-rule="evenodd" stroke-width="0"/>
      <path d="M20.75,13.8l.8-1.65.35-.5v-.1l5.45.05.05.1-2.55,2.65-3.7-.55h-.4" fill="#999" fill-rule="evenodd" stroke-width="0"/>
      <path d="M19.6,16l1.15-2.2h.4l3.7.55-1.95,2.15-3.3-.5" fill="#aaa" fill-rule="evenodd" stroke-width="0"/>
      <path d="M17.05,21.5l1.5-3.35,2.8.35-.45.6-.05.05-.3.4.1.1h-.15l-.1.15-.55.65-.4.3-.35.6-.15.25-.4.7-1.05-.6-.45-.2" fill="#848484" fill-rule="evenodd" stroke-width="0"/>
      <path d="M18.55,18.15l1.05-2.15,3.3.5-1.55,2-2.8-.35" fill="#9a9a9a" fill-rule="evenodd" stroke-width="0"/>
      <path d="M20.55,26.7l-.05.05-.65-.05h-.05l-.15-.15h-.1v-.1l-.4-.4-.15-.15-.05-.1-.1-.05v-.15l.05-.55c.17-.3.38-.43.65-.4h.15l.1-.05v-.05c.3.03.55.13.75.3l.55.35c.1.07.15.17.15.3l.15.35-.1.4-.55.5-.2-.05M18.5,25.55l-.6-.5h-.1l-.55-.3-.2.35h-.15v.25l-.05.1-.1.15-.95-.25-.25-.2-.35-.05-.35-.15-.4-.2-1.1-.7-.3-.3c-.13-.17-.13-.3,0-.4l.05-.15.2-.1-.15.05-.35-.1-.05.05.15-.7-.15-.2-.6-.35.05-.05.3-.3.2-.5-.05-.3h.05l.45.25,4.85,2.85c.33.13.62.28.85.45l.25.15-.1.05c-.2.03-.33.12-.4.25l-.1.7v.15M14.95,29.25h-.2l-2.05-.75-.2-.1-1.35-1.05.1-.1v-.15l.1-.3c.1-.2.32-.2.65,0h.05l.25.05-.1-.35.05-.25s.05-.08.25-.15l.4-.05.2.2.4.1-.3.1-.15.3-.05.6c-.4-.13-.65-.07-.75.2-.17.3-.13.52.1.65h.15l-.05-.55.2-.2.3.05h.15l.15-.75.35-.35.3.2h.05l.25.1v.3l-.1.5-.2.25.05.15c.2.07.33.22.4.45v.25l-.2.2.1.2.15-.05.1-.2.1-.45c-.03-.27-.17-.43-.4-.5l.2-.65v-.25l.3.1.35.4.25.2v.5l-.05.1.05.15.15.35-.05.15-.15.15-.4.1.1.15M11.1,27.3l-.15-.2.1-.05-.1-.2-.05-.5.45-.2h.1l.15-.1.15-.25.5.05.25-.05.2.2-.35-.05-.35.3v.35c-.47-.17-.78-.1-.95.2l-.05.15.05.1.05.25M11.05,21.75l-.1-.05c-.03-.07-.08-.08-.15-.05l-.1-.15-.05.1-.6-.7-.05-.2v-.4l-.05-.1h.1v-.15l.4-.3h.05l.1-.05.15.05.15-.05.55.15.15.1.45.4.15.15-.05.2.05.25-.1.3-.25.35-.05.05-.35.05-.35-.05-.05.1M19.55,25.45c.1-.23.27-.3.5-.2l.05-.05.15-.05-.05-.05c-.27-.1-.5-.02-.7.25-.13.23-.05.45.25.65l.1-.05c-.3-.17-.4-.33-.3-.5M20.55,25.65l.05.15-.05.1c-.03.17-.17.25-.4.25l-.15.05.4.05.4-.25.05-.3c-.1-.2-.25-.35-.45-.45l.05.05.1.15v.2M14.9,25.05l.1.15.85.4.2.1.5.1-.05.25-1.1.1-.5-.1-.7-.35-.4-.25-.7-.35-.1-.1c-.33-.33-.43-.68-.3-1.05l.2-.05.35.45.25.05,1.4.65M14.65,26.05h.1l1.2.5.05.05-.15.15-.4.2-.2.1-.55-.35-.6-.25-.15-.05-1.05-.6-.1-.2-.25-.6v-.05l.5.3v.1l.45.2.95.4.2.1M11.5,20.6l-.05.2-.3.25h-.05l-.2.1h.25l.35-.15.1-.5-.2-.25-.1.05.05.1.15.2M11.15,20.25l-.2-.15c-.2,0-.33.07-.4.2l-.2.3.25.35.2.05c-.23-.1-.28-.27-.15-.5.1-.27.27-.35.5-.25" fill="#fae427" fill-rule="evenodd" stroke-width="0"/>
      <path d="M17.85,22.45l.15.1.4.15.1.15.1.05-5.55-2.2-.25-.2-.3-.3c-.13-.17-.35-.32-.65-.45l-.05-.15c2.03.97,4.05,1.92,6.05,2.85" fill="#fae638" fill-rule="evenodd" stroke-width="0"/>
      <path d="M16.35,21.5l7.15-13.7-.9,3.3-5.85,10.7-.2-.15-.2-.15" fill="#777" fill-rule="evenodd" stroke-width="0"/>
      <path d="M16.35,21.5l-.35-.2,5.15-10.9,2.4-2.85-.05.25-7.15,13.7" fill="#fff" fill-rule="evenodd" stroke-width="0"/>
    </g>
  </g>
</svg>